<?xml version="1.0" standalone="no"?><!DOCTYPE svg PUBLIC "-//W3C//DTD SVG 1.1//EN" "http://www.w3.org/Graphics/SVG/1.1/DTD/svg11.dtd"><svg t="1704878624752" class="icon" viewBox="0 0 1024 1024" version="1.1" xmlns="http://www.w3.org/2000/svg" p-id="10557" xmlns:xlink="http://www.w3.org/1999/xlink" width="200" height="200"><path d="M177.493333 389.36381a48.761905 48.761905 0 0 1 24.380953 6.534095l249.222095 143.896381a73.142857 73.142857 0 0 1 36.571429 63.341714v287.792762a48.761905 48.761905 0 0 1-45.104762 48.615619l-3.657143 0.146286a48.761905 48.761905 0 0 1-24.380953-6.534096L165.302857 789.26019a73.142857 73.142857 0 0 1-36.571428-63.341714V438.125714a48.761905 48.761905 0 0 1 45.104761-48.64l3.657143-0.121904z m669.135238 0a48.761905 48.761905 0 0 1 48.615619 45.104761l0.146286 3.657143v287.792762a73.142857 73.142857 0 0 1-32.426666 60.757334l-4.144762 2.58438-249.246477 143.896381a48.761905 48.761905 0 0 1-20.114285 6.339048l-4.266667 0.195048a48.761905 48.761905 0 0 1-48.615619-45.104762l-0.146286-3.657143V603.136a73.142857 73.142857 0 0 1 32.426667-60.757333l4.144762-2.584381 249.246476-143.896381a48.761905 48.761905 0 0 1 20.114286-6.339048l4.266666-0.195047zM201.849905 480.353524l0.024381 245.564952 212.650666 122.758095V603.136L201.874286 480.353524z m620.373333 0l-210.553905 121.539047-2.096762 1.243429V848.700952l210.578286-121.514666 2.096762-1.243429-0.024381-245.564952zM544.085333 122.441143l4.608 2.438095 249.222096 143.896381a48.761905 48.761905 0 0 1 3.242666 82.407619l-3.242666 2.048-249.222096 143.896381a73.142857 73.142857 0 0 1-68.559238 2.438095l-4.583619-2.438095-249.246476-143.896381a48.761905 48.761905 0 0 1-3.218286-82.407619l3.218286-2.048 249.246476-143.896381a73.142857 73.142857 0 0 1 68.534857-2.438095zM512.048762 188.220952l-212.601905 122.758096 211.748572 122.270476 0.950857 0.487619 212.626285-122.758095-211.309714-122.002286-1.414095-0.75581z" p-id="10558"></path></svg>