<?xml version="1.0" standalone="no"?><!DOCTYPE svg PUBLIC "-//W3C//DTD SVG 1.1//EN" "http://www.w3.org/Graphics/SVG/1.1/DTD/svg11.dtd"><svg t="1704878452964" class="icon" viewBox="0 0 1194 1024" version="1.1" xmlns="http://www.w3.org/2000/svg" p-id="9194" xmlns:xlink="http://www.w3.org/1999/xlink" width="233.203125" height="200"><path d="M958.634667 769.237333v189.781334H236.032V769.28h722.602667zM748.458667 53.674667v159.018666c0 11.52 10.154667 20.906667 22.656 20.906667h187.52v104.832H236.032V53.674667h512.426667z" fill="#1D324B" p-id="9195"></path><path d="M770.986667 0l2.090666 0.085333 1.92 0.426667a14.08 14.08 0 0 0 1.536 0.170667c1.408 0.256 2.048 0.512 0.853334 0.298666a22.826667 22.826667 0 0 1 10.666666 6.058667l0.085334 0.042667 0.085333 0.042666 222.890667 191.744a20.053333 20.053333 0 0 1 5.034666 9.685334l0.384 3.754666 0.128 1.28 0.085334 1.194667v123.648h27.818666c33.664 0 61.312 23.722667 64.469334 54.058667l0.298666 5.802666v311.04c0 31.146667-25.685333 56.661333-58.538666 59.562667l-6.229334 0.256h-27.818666v212.992c0 21.546667-17.706667 39.296-40.362667 41.6l-4.949333 0.213333H223.274667c-23.381333 0-42.624-16.298667-45.098667-37.248l-0.256-4.565333v-212.992h-27.776c-33.706667 0-61.354667-23.68-64.512-54.016L85.333333 709.376V398.293333c0-31.146667 25.685333-56.661333 58.581334-59.562666l6.229333-0.298667h27.776V41.856c0-21.504 17.706667-39.296 40.405333-41.6L223.274667 0H770.986667z m187.648 769.237333H236.032v189.781334h722.602667V769.28zM325.034667 401.152c-98.688 0-178.090667 57.173333-178.090667 159.914667 0 85.76 58.112 150.528 170.837333 150.528 36.394667 0 65.024-5.632 80-11.434667l3.712-1.578667-11.136-53.12c-14.506667 5.333333-39.168 9.813333-61.482666 9.813334-65.749333 0-104.490667-37.973333-104.490667-98.261334 0-66.986667 45.482667-99.584 104.064-99.584 22.869333 0 41.642667 4.053333 56.021333 8.96l5.888 2.176 15.018667-54.016c-13.056-6.229333-42.112-13.397333-80.341333-13.397333z m546.858666 2.688c-32.597333 0-63.744 1.706667-89.173333 4.821333l-10.538667 1.408v295.68a690.346667 690.346667 0 0 0 83.754667 4.437334c59.562667 0 109.056-10.88 143.36-33.706667l7.082667-5.12c31.445333-24.576 54.229333-64.298667 54.229333-121.941333 0-53.12-21.333333-90.197333-55.210667-113.493334-31.445333-21.845333-71.594667-32.085333-133.504-32.085333z m-244.394666 2.176h-96.768l-99.669334 301.056h76.458667l23.210667-77.312h93.354666l25.173334 77.312h79.36l-101.12-301.056z m252.16 50.048c63.317333 0 102.997333 33.066667 102.485333 95.573333 0 71.936-43.477333 105.898667-110.293333 105.386667-9.173333 0-19.370667 0-25.6-1.28v-196.992c6.229333-1.28 16.896-2.688 33.365333-2.688z m-303.957334 0.896h0.938667c3.669333 13.397333 7.808 29.312 12.117333 43.946667l4.394667 14.08 20.352 63.914666h-72.106667l19.328-63.872c3.968-13.056 7.68-29.141333 11.349334-43.904l3.626666-14.165333h0.938667z m172.757334-403.285333H236.032v284.757333h722.602667V233.6h-187.52a22.272 22.272 0 0 1-22.272-17.152l-0.384-3.754667V53.674667zM773.12 0.085333l0.554667 0.042667 2.645333 0.469333-1.408-0.213333-1.792-0.298667z" fill="#E0E5ED" p-id="9196"></path></svg>