<?xml version="1.0" standalone="no"?><!DOCTYPE svg PUBLIC "-//W3C//DTD SVG 1.1//EN" "http://www.w3.org/Graphics/SVG/1.1/DTD/svg11.dtd"><svg t="1694058433931" class="icon" viewBox="0 0 1024 1024" version="1.1" xmlns="http://www.w3.org/2000/svg" p-id="7799" xmlns:xlink="http://www.w3.org/1999/xlink" width="200" height="200"><path d="M269.37 618.16a26.28 26.28 0 0 1-18.58-44.86l203.5-203.5a26.28 26.28 0 0 1 37.16 37.2L288 610.46a26.17 26.17 0 0 1-18.63 7.7zM355.44 672.25a26.28 26.28 0 0 1-18.58-44.86l187.52-187.51A26.28 26.28 0 1 1 561.54 477L374 664.55a26.17 26.17 0 0 1-18.56 7.7zM262.44 490.65a26.27 26.27 0 0 1-18.58-44.85l122.2-122.2a26.28 26.28 0 0 1 37.16 37.16L281 483a26.2 26.2 0 0 1-18.56 7.65zM440.42 723.53a26.27 26.27 0 0 1-18.58-44.85l105.57-105.57a26.28 26.28 0 0 1 37.16 37.16L459 715.84a26.2 26.2 0 0 1-18.58 7.69z" fill="#303030" p-id="7800"></path><path d="M548.49 84.1v342.88l289.92 166.67-6.17-345.73L548.49 84.1z" fill="#279ACC" p-id="7801"></path><path d="M548.49 780.86a26.29 26.29 0 0 1-26.28-26.28V442.15L251.6 285.87a26.28 26.28 0 0 1 26.28-45.52l270.61 156.28L819.1 240.35l26.28 45.52-270.61 156.28v312.43a26.28 26.28 0 0 1-26.28 26.28z" fill="#303030" p-id="7802"></path><path d="M549.64 790.71l-315-181.89V245l315-181.9L864.69 245v363.82zM287.16 578.47L549.64 730l262.49-151.53V275.38L549.64 123.83 287.16 275.38z" fill="#303030" p-id="7803"></path><path d="M647.88 960.22a26.27 26.27 0 0 1-26.28-26.28V384.32a26.28 26.28 0 0 1 52.56 0v549.62a26.28 26.28 0 0 1-26.28 26.28z" fill="#303030" p-id="7804"></path><path d="M647.85 410.6a26.08 26.08 0 0 1-12.94-3.43L150.47 132.24a26.28 26.28 0 1 1 25.95-45.7l484.43 274.93a26.28 26.28 0 0 1-13 49.13z" fill="#303030" p-id="7805"></path><path d="M647.85 960.22a26.13 26.13 0 0 1-13.88-4L159 660.12a46 46 0 0 1-21.79-39.28V109.39a26.28 26.28 0 1 1 52.55 0v508l472.02 294.26a26.27 26.27 0 0 1-13.93 48.57z" fill="#303030" p-id="7806"></path></svg>