<?xml version="1.0" standalone="no"?><!DOCTYPE svg PUBLIC "-//W3C//DTD SVG 1.1//EN" "http://www.w3.org/Graphics/SVG/1.1/DTD/svg11.dtd"><svg t="1706256968400" class="icon" viewBox="0 0 1024 1024" version="1.1" xmlns="http://www.w3.org/2000/svg" p-id="1504" width="48" height="48" xmlns:xlink="http://www.w3.org/1999/xlink"><path d="M512 0a22.921846 22.921846 0 0 0-22.921846 22.921846v978.156308a22.921846 22.921846 0 1 0 45.843692 0V710.498462a186.210462 186.210462 0 0 0 178.254769-175.340308l1.339077-23.197539-1.339077-23.236923a186.210462 186.210462 0 0 0-178.254769-175.261538V22.882462A22.921846 22.921846 0 0 0 512 0z m332.209231 152.142769a19.771077 19.771077 0 1 1 27.963077 27.963077l-159.82277 159.822769a19.771077 19.771077 0 0 1-27.963076-27.963077l159.822769-159.822769z m26.151384 209.447385a19.771077 19.771077 0 0 0-25.836307-10.633846l-100.273231 42.023384a19.771077 19.771077 0 0 0 15.281231 36.470154l100.233846-41.984a19.771077 19.771077 0 0 0 10.633846-25.875692z m134.537847 135.089231a19.101538 19.101538 0 0 1 0 38.242461h-229.218462a19.101538 19.101538 0 0 1 0-38.203077h229.218462z m-134.695385 159.310769a19.101538 19.101538 0 0 0-10.633846-24.812308l-97.28-38.872615a19.101538 19.101538 0 0 0-14.178462 35.485538l97.28 38.872616c9.767385 3.899077 20.873846-0.866462 24.812308-10.673231z m1.260308 185.422769a19.101538 19.101538 0 0 1-26.781539 27.254154l-158.562461-155.569231a19.101538 19.101538 0 0 1 26.781538-27.254154l158.562462 155.569231z m-210.432 24.694154a21.425231 21.425231 0 0 0 11.106461-28.199385l-38.4-88.300307a21.425231 21.425231 0 1 0-39.305846 17.092923l38.4 88.300307c4.726154 10.870154 17.329231 15.832615 28.199385 11.106462z m10.712615-684.071385a21.425231 21.425231 0 0 0-39.778462-15.990154L594.707692 258.835692a21.425231 21.425231 0 1 0 39.778462 15.990154l37.297231-92.790154z m-519.876923-30.523077a19.771077 19.771077 0 0 1 27.963077 0l159.783384 159.82277a19.771077 19.771077 0 0 1-27.963076 27.963077L151.827692 179.475692a19.771077 19.771077 0 0 1 0-27.963077z m27.648 198.852923a19.771077 19.771077 0 1 0-15.281231 36.43077l100.273231 42.023384a19.771077 19.771077 0 1 0 15.241846-36.470154L179.515077 350.365538zM0 515.150769c0-10.555077 8.546462-19.101538 19.101538-19.101538h229.257847a19.101538 19.101538 0 0 1 0 38.203077H19.140923A19.101538 19.101538 0 0 1 0 515.190154z m164.470154 115.318154a19.101538 19.101538 0 1 0 14.178461 35.485539l97.28-38.833231a19.101538 19.101538 0 0 0-14.178461-35.446154l-97.28 38.793846z m-12.209231 237.292308a19.101538 19.101538 0 0 1 0.275692-27.017846l158.601847-155.569231a19.101538 19.101538 0 1 1 26.781538 27.293538l-158.601846 155.569231a19.101538 19.101538 0 0 1-27.017846-0.275692z m199.601231-30.523077a21.425231 21.425231 0 0 0 39.305846 17.092923l38.4-88.300308a21.425231 21.425231 0 0 0-39.305846-17.092923l-38.4 88.300308zM364.150154 153.6a21.425231 21.425231 0 0 0-11.894154 27.844923l37.336615 92.790154a21.425231 21.425231 0 0 0 39.778462-15.990154L392.034462 165.415385a21.425231 21.425231 0 0 0-27.884308-11.894154z" p-id="1505"></path></svg>